<svg width="40" height="40" fill="none" xmlns="http://www.w3.org/2000/svg"><path d="M5.825 5.89A20 20 0 0 1 19.907 0H20A20 20 0 1 1 5.825 5.89z" fill="#333"/><path d="M28.951 12.273c-.24-.195-.608-.236-.774-.233-.752.013-1.907.415-7.46 2.725-1.947.808-5.834 2.483-11.664 5.023-.947.377-1.443.745-1.488 1.105-.076.609.684.848 1.721 1.175.142.045.29.091.44.14 1.022.332 2.395.72 3.109.734.648.016 1.37-.25 2.17-.8 5.446-3.675 8.258-5.535 8.435-5.575.125-.029.298-.064.415.04.116.103.105.3.093.353-.076.321-3.059 3.095-4.61 4.537-.486.452-.831.773-.902.846-.156.162-.315.316-.468.463-.95.914-1.662 1.601.038 2.72.819.54 1.473.986 2.126 1.431.711.484 1.42.968 2.338 1.57.235.153.459.313.677.469.828.59 1.572 1.12 2.49 1.034.535-.048 1.086-.55 1.366-2.05.663-3.542 1.967-11.215 2.267-14.378a3.498 3.498 0 0 0-.034-.787.843.843 0 0 0-.285-.542z" fill="#fff"/></svg>